<?xml version="1.0" encoding="utf-8"?>
<!-- Generator: Adobe Illustrator 19.0.0, SVG Export Plug-In . SVG Version: 6.00 Build 0)  -->
<svg version="1.1" id="Layer_1" xmlns="http://www.w3.org/2000/svg" xmlns:xlink="http://www.w3.org/1999/xlink" x="0px" y="0px"
	 viewBox="0 0 81 30.8" style="enable-background:new 0 0 81 30.8;" xml:space="preserve">
<metadata><?xpacket begin="﻿" id="W5M0MpCehiHzreSzNTczkc9d"?>
<x:xmpmeta xmlns:x="adobe:ns:meta/" x:xmptk="Adobe XMP Core 5.6-c067 79.157747, 2015/03/30-23:40:42        ">
   <rdf:RDF xmlns:rdf="http://www.w3.org/1999/02/22-rdf-syntax-ns#">
      <rdf:Description rdf:about=""/>
   </rdf:RDF>
</x:xmpmeta>
                                                                                                    
                                                                                                    
                                                                                                    
                                                                                                    
                                                                                                    
                                                                                                    
                                                                                                    
                                                                                                    
                                                                                                    
                                                                                                    
                                                                                                    
                                                                                                    
                                                                                                    
                                                                                                    
                                                                                                    
                                                                                                    
                                                                                                    
                                                                                                    
                                                                                                    
                                                                                                    
                           
<?xpacket end="w"?></metadata>
<style type="text/css">
	.st0{fill:#FEC626;}
</style>
<g id="XMLID_4015_">
	<g id="XMLID_4016_">
		<g id="XMLID_4023_">
			<path id="XMLID_4024_" class="st0" d="M24.9,30.8c-3.3,0-9.4-3.9-15.3-9.8c-3.4-3.4-6.2-7-7.9-10.1c-1.8-3.3-2.2-5.7-1-6.8L0.7,4
				l4.6-3.9C5.4,0,5.6,0,5.7,0C5.8,0,6,0.1,6,0.2l5.6,6.7c0.1,0.2,0.2,0.4,0,0.6l-2.8,4.3l10.2,10.2l4.3-2.8c0.2-0.1,0.4-0.1,0.6,0
				l6.7,5.6c0.1,0.1,0.2,0.2,0.2,0.4c0,0.1,0,0.3-0.1,0.4l-3.9,4.6c0,0,0,0,0,0C26.3,30.6,25.7,30.8,24.9,30.8z M1.4,4.8
				C1.4,4.8,1.4,4.8,1.4,4.8c-0.8,0.8-0.3,2.9,1.2,5.6c1.7,3,4.4,6.5,7.8,9.9c5.5,5.5,11.6,9.5,14.5,9.5c0.5,0,0.9-0.1,1.1-0.4
				l3.6-4.2l-6-5.1L19.3,23c-0.2,0.1-0.5,0.1-0.6-0.1L7.9,12.2c-0.2-0.2-0.2-0.4-0.1-0.6l2.9-4.3l-5.1-6L1.4,4.8z"/>
		</g>
		<g id="XMLID_4017_">
			<g id="XMLID_4018_">
				<g id="XMLID_4021_">
					<path id="XMLID_4022_" class="st0" d="M30.3,8.2c-0.3,0-0.5-0.2-0.5-0.5V1h-6.7c-0.3,0-0.5-0.2-0.5-0.5S22.8,0,23.1,0h7.2
						c0.3,0,0.5,0.2,0.5,0.5v7.2C30.8,8,30.6,8.2,30.3,8.2z"/>
				</g>
				<g id="XMLID_4019_">
					<path id="XMLID_4020_" class="st0" d="M19,12.3c-0.1,0-0.3-0.1-0.4-0.2c-0.2-0.2-0.2-0.5,0-0.7L29.9,0.2c0.2-0.2,0.5-0.2,0.7,0
						c0.2,0.2,0.2,0.5,0,0.7L19.4,12.2C19.3,12.3,19.1,12.3,19,12.3z"/>
				</g>
			</g>
		</g>
	</g>
	<g id="XMLID_27_">
		<path id="XMLID_33_" class="st0" d="M37,11.2c0-0.9,0.2-1.8,0.5-2.6c0.4-0.8,0.8-1.5,1.5-2.1c0.6-0.6,1.3-1.1,2.2-1.4
			c0.8-0.3,1.8-0.5,2.7-0.5c1.1,0,2,0.2,2.9,0.6c0.9,0.4,1.6,1,2.2,1.7c0.6,0.7,1.1,1.7,1.4,2.7c0.3,1.1,0.5,2.3,0.5,3.7
			c0,1.7-0.2,3.2-0.5,4.6c-0.3,1.3-0.8,2.4-1.5,3.3c-0.6,0.9-1.4,1.6-2.3,2c-0.9,0.5-1.9,0.7-3,0.7c-1.2,0-2.3-0.3-3.3-0.8
			c-1-0.5-1.9-1.3-2.6-2.2l2.1-2.2c0.4,0.7,1,1.2,1.7,1.6c0.7,0.4,1.4,0.6,2.2,0.6c1.2,0,2.1-0.5,2.8-1.4c0.7-0.9,1.1-2.3,1.1-4
			c-0.4,0.6-0.9,1.1-1.6,1.5c-0.7,0.4-1.5,0.6-2.4,0.6c-0.9,0-1.8-0.2-2.6-0.5c-0.8-0.3-1.5-0.8-2.1-1.3c-0.6-0.6-1-1.2-1.4-2
			C37.2,13,37,12.1,37,11.2z M43.9,7.7c-0.5,0-0.9,0.1-1.3,0.3c-0.4,0.2-0.8,0.4-1.1,0.8c-0.3,0.3-0.6,0.7-0.8,1.1s-0.3,0.9-0.3,1.4
			s0.1,0.9,0.3,1.3c0.2,0.4,0.4,0.8,0.7,1.1c0.3,0.3,0.7,0.6,1.1,0.7c0.4,0.2,0.9,0.3,1.4,0.3c0.5,0,0.9-0.1,1.4-0.3
			c0.4-0.2,0.8-0.4,1.1-0.7c0.3-0.3,0.6-0.7,0.7-1.1c0.2-0.4,0.3-0.9,0.3-1.3s-0.1-0.9-0.3-1.4c-0.2-0.4-0.4-0.8-0.8-1.1
			C46,8.4,45.7,8.2,45.3,8C44.8,7.8,44.4,7.7,43.9,7.7z"/>
		<path id="XMLID_30_" class="st0" d="M60.2,23.2v-4h-7.8v-3.2l8.9-11.4h2.4v11.4h2.3v3.2h-2.3v4H60.2z M55.9,16.1h4.6v-6L55.9,16.1
			z"/>
		<path id="XMLID_28_" class="st0" d="M74.8,11.4c0.9,0,1.7,0.1,2.5,0.4c0.8,0.3,1.4,0.7,2,1.2c0.5,0.5,1,1.2,1.3,1.9
			c0.3,0.7,0.5,1.6,0.5,2.5c0,1-0.2,1.8-0.5,2.6c-0.3,0.8-0.8,1.5-1.5,2c-0.6,0.6-1.4,1-2.2,1.3c-0.9,0.3-1.8,0.5-2.8,0.5
			c-1.4,0-2.6-0.3-3.7-0.9c-1.1-0.6-1.9-1.4-2.5-2.4l2.1-2.1c0.5,0.7,1.1,1.2,1.9,1.7c0.7,0.4,1.5,0.6,2.3,0.6c1,0,1.7-0.3,2.4-0.9
			c0.6-0.6,0.9-1.3,0.9-2.3c0-0.9-0.3-1.7-0.9-2.2c-0.6-0.6-1.3-0.9-2.2-0.9c-0.6,0-1.1,0.1-1.6,0.4c-0.5,0.3-0.9,0.6-1.2,1.1h-3.1
			c0-0.1,0-0.3,0.1-0.6c0.1-0.3,0.2-0.8,0.3-1.3c0.1-0.5,0.2-1.1,0.3-1.8c0.1-0.7,0.3-1.3,0.4-2c0.3-1.6,0.7-3.5,1.1-5.5h9.3v3.2
			h-6.7l-0.8,4.2c0.2-0.2,0.5-0.4,0.9-0.6C73.7,11.4,74.2,11.4,74.8,11.4z"/>
	</g>
</g>
</svg>
