<?xml version="1.0" encoding="UTF-8"?>
<svg xmlns="http://www.w3.org/2000/svg" xmlns:xlink="http://www.w3.org/1999/xlink" width="12pt" height="14pt" viewBox="0 0 12 14" version="1.1">
<g id="surface1">
<path style=" stroke:none;fill-rule:nonzero;fill:rgb(100%,100%,100%);fill-opacity:1;" d="M 10.023438 7.347656 C 10.007812 5.601562 11.546875 4.753906 11.617188 4.714844 C 10.746094 3.519531 9.390625 3.355469 8.914062 3.34375 C 7.777344 3.230469 6.675781 3.980469 6.097656 3.980469 C 5.503906 3.980469 4.613281 3.355469 3.652344 3.375 C 2.414062 3.390625 1.257812 4.0625 0.621094 5.105469 C -0.6875 7.230469 0.289062 10.351562 1.542969 12.070312 C 2.171875 12.910156 2.90625 13.847656 3.867188 13.816406 C 4.804688 13.78125 5.15625 13.253906 6.289062 13.253906 C 7.414062 13.253906 7.742188 13.816406 8.722656 13.792969 C 9.730469 13.78125 10.367188 12.949219 10.972656 12.101562 C 11.695312 11.136719 11.988281 10.1875 12 10.140625 C 11.976562 10.132812 10.042969 9.441406 10.023438 7.347656 Z M 10.023438 7.347656 "/>
<path style=" stroke:none;fill-rule:nonzero;fill:rgb(100%,100%,100%);fill-opacity:1;" d="M 8.171875 2.214844 C 8.679688 1.621094 9.023438 0.816406 8.929688 0 C 8.195312 0.03125 7.28125 0.472656 6.753906 1.054688 C 6.289062 1.5625 5.871094 2.398438 5.980469 3.1875 C 6.800781 3.242188 7.644531 2.796875 8.171875 2.214844 Z M 8.171875 2.214844 "/>
</g>
</svg>
