<?xml version="1.0" encoding="utf-8"?>
<!-- Generator: Adobe Illustrator 19.0.0, SVG Export Plug-In . SVG Version: 6.00 Build 0)  -->
<svg version="1.1" id="Layer_1" xmlns="http://www.w3.org/2000/svg" xmlns:xlink="http://www.w3.org/1999/xlink" x="0px" y="0px"
	 viewBox="-101 126.7 81 30.8" style="enable-background:new -101 126.7 81 30.8;" xml:space="preserve">
<metadata><?xpacket begin="﻿" id="W5M0MpCehiHzreSzNTczkc9d"?>
<x:xmpmeta xmlns:x="adobe:ns:meta/" x:xmptk="Adobe XMP Core 5.6-c067 79.157747, 2015/03/30-23:40:42        ">
   <rdf:RDF xmlns:rdf="http://www.w3.org/1999/02/22-rdf-syntax-ns#">
      <rdf:Description rdf:about=""/>
   </rdf:RDF>
</x:xmpmeta>
                                                                                                    
                                                                                                    
                                                                                                    
                                                                                                    
                                                                                                    
                                                                                                    
                                                                                                    
                                                                                                    
                                                                                                    
                                                                                                    
                                                                                                    
                                                                                                    
                                                                                                    
                                                                                                    
                                                                                                    
                                                                                                    
                                                                                                    
                                                                                                    
                                                                                                    
                                                                                                    
                           
<?xpacket end="w"?></metadata>
<style type="text/css">
	.st0{fill:#791CC0;}
</style>
<g id="XMLID_4015_">
	<g id="XMLID_4016_">
		<g id="XMLID_4023_">
			<path id="XMLID_4024_" class="st0" d="M-76.1,157.5c-3.3,0-9.4-3.9-15.3-9.8c-3.4-3.4-6.2-7-7.9-10.1c-1.8-3.3-2.2-5.7-1-6.8
				v-0.1l4.6-3.9c0.1-0.1,0.3-0.1,0.4-0.1c0.1,0,0.3,0.1,0.3,0.2l5.6,6.7c0.1,0.2,0.2,0.4,0,0.6l-2.8,4.3l10.2,10.2l4.3-2.8
				c0.2-0.1,0.4-0.1,0.6,0l6.7,5.6c0.1,0.1,0.2,0.2,0.2,0.4c0,0.1,0,0.3-0.1,0.4l-3.9,4.6l0,0C-74.7,157.3-75.3,157.5-76.1,157.5z
				 M-99.6,131.5L-99.6,131.5c-0.8,0.8-0.3,2.9,1.2,5.6c1.7,3,4.4,6.5,7.8,9.9c5.5,5.5,11.6,9.5,14.5,9.5c0.5,0,0.9-0.1,1.1-0.4
				l3.6-4.2l-6-5.1l-4.3,2.9c-0.2,0.1-0.5,0.1-0.6-0.1l-10.8-10.7c-0.2-0.2-0.2-0.4-0.1-0.6l2.9-4.3l-5.1-6L-99.6,131.5z"/>
		</g>
		<g id="XMLID_4017_">
			<g id="XMLID_4018_">
				<g id="XMLID_4021_">
					<path id="XMLID_4022_" class="st0" d="M-70.7,134.9c-0.3,0-0.5-0.2-0.5-0.5v-6.7h-6.7c-0.3,0-0.5-0.2-0.5-0.5
						c0-0.3,0.2-0.5,0.5-0.5h7.2c0.3,0,0.5,0.2,0.5,0.5v7.2C-70.2,134.7-70.4,134.9-70.7,134.9z"/>
				</g>
				<g id="XMLID_4019_">
					<path id="XMLID_4020_" class="st0" d="M-82,139c-0.1,0-0.3-0.1-0.4-0.2c-0.2-0.2-0.2-0.5,0-0.7l11.3-11.2
						c0.2-0.2,0.5-0.2,0.7,0c0.2,0.2,0.2,0.5,0,0.7l-11.2,11.3C-81.7,139-81.9,139-82,139z"/>
				</g>
			</g>
		</g>
	</g>
	<g id="XMLID_27_">
		<path id="XMLID_33_" class="st0" d="M-64,137.9c0-0.9,0.2-1.8,0.5-2.6c0.4-0.8,0.8-1.5,1.5-2.1c0.6-0.6,1.3-1.1,2.2-1.4
			c0.8-0.3,1.8-0.5,2.7-0.5c1.1,0,2,0.2,2.9,0.6c0.9,0.4,1.6,1,2.2,1.7c0.6,0.7,1.1,1.7,1.4,2.7c0.3,1.1,0.5,2.3,0.5,3.7
			c0,1.7-0.2,3.2-0.5,4.6c-0.3,1.3-0.8,2.4-1.5,3.3c-0.6,0.9-1.4,1.6-2.3,2c-0.9,0.5-1.9,0.7-3,0.7c-1.2,0-2.3-0.3-3.3-0.8
			s-1.9-1.3-2.6-2.2l2.1-2.2c0.4,0.7,1,1.2,1.7,1.6c0.7,0.4,1.4,0.6,2.2,0.6c1.2,0,2.1-0.5,2.8-1.4c0.7-0.9,1.1-2.3,1.1-4
			c-0.4,0.6-0.9,1.1-1.6,1.5c-0.7,0.4-1.5,0.6-2.4,0.6s-1.8-0.2-2.6-0.5s-1.5-0.8-2.1-1.3c-0.6-0.6-1-1.2-1.4-2
			C-63.8,139.7-64,138.8-64,137.9z M-57.1,134.4c-0.5,0-0.9,0.1-1.3,0.3c-0.4,0.2-0.8,0.4-1.1,0.8c-0.3,0.3-0.6,0.7-0.8,1.1
			s-0.3,0.9-0.3,1.4s0.1,0.9,0.3,1.3c0.2,0.4,0.4,0.8,0.7,1.1s0.7,0.6,1.1,0.7c0.4,0.2,0.9,0.3,1.4,0.3s0.9-0.1,1.4-0.3
			c0.4-0.2,0.8-0.4,1.1-0.7s0.6-0.7,0.7-1.1c0.2-0.4,0.3-0.9,0.3-1.3c0-0.4-0.1-0.9-0.3-1.4c-0.2-0.4-0.4-0.8-0.8-1.1
			c-0.3-0.4-0.6-0.6-1-0.8C-56.2,134.5-56.6,134.4-57.1,134.4z"/>
		<path id="XMLID_30_" class="st0" d="M-40.8,149.9v-4h-7.8v-3.2l8.9-11.4h2.4v11.4h2.3v3.2h-2.3v4H-40.8z M-45.1,142.8h4.6v-6
			L-45.1,142.8z"/>
		<path id="XMLID_28_" class="st0" d="M-26.2,138.1c0.9,0,1.7,0.1,2.5,0.4c0.8,0.3,1.4,0.7,2,1.2c0.5,0.5,1,1.2,1.3,1.9
			s0.5,1.6,0.5,2.5c0,1-0.2,1.8-0.5,2.6c-0.3,0.8-0.8,1.5-1.5,2c-0.6,0.6-1.4,1-2.2,1.3c-0.9,0.3-1.8,0.5-2.8,0.5
			c-1.4,0-2.6-0.3-3.7-0.9c-1.1-0.6-1.9-1.4-2.5-2.4l2.1-2.1c0.5,0.7,1.1,1.2,1.9,1.7c0.7,0.4,1.5,0.6,2.3,0.6c1,0,1.7-0.3,2.4-0.9
			c0.6-0.6,0.9-1.3,0.9-2.3c0-0.9-0.3-1.7-0.9-2.2c-0.6-0.6-1.3-0.9-2.2-0.9c-0.6,0-1.1,0.1-1.6,0.4c-0.5,0.3-0.9,0.6-1.2,1.1h-3.1
			c0-0.1,0-0.3,0.1-0.6c0.1-0.3,0.2-0.8,0.3-1.3c0.1-0.5,0.2-1.1,0.3-1.8c0.1-0.7,0.3-1.3,0.4-2c0.3-1.6,0.7-3.5,1.1-5.5h9.3v3.2
			h-6.7l-0.8,4.2c0.2-0.2,0.5-0.4,0.9-0.6C-27.3,138.1-26.8,138.1-26.2,138.1z"/>
	</g>
</g>
</svg>
